<?xml version="1.0" encoding="UTF-8" standalone="no"?>
<!-- Created with Inkscape (http://www.inkscape.org/) -->

<svg
   xmlns:dc="http://purl.org/dc/elements/1.1/"
   xmlns:cc="http://creativecommons.org/ns#"
   xmlns:rdf="http://www.w3.org/1999/02/22-rdf-syntax-ns#"
   xmlns:svg="http://www.w3.org/2000/svg"
   xmlns="http://www.w3.org/2000/svg"
   xmlns:sodipodi="http://sodipodi.sourceforge.net/DTD/sodipodi-0.dtd"
   xmlns:inkscape="http://www.inkscape.org/namespaces/inkscape"
   width="184.25081mm"
   height="68.942856mm"
   viewBox="0 0 652.8572 244.2857"
   id="svg2"
   version="1.1"
   inkscape:version="0.91 r13725"
   sodipodi:docname="logo v2.svg">
  <defs
     id="defs4" />
  <sodipodi:namedview
     id="base"
     pagecolor="#ffffff"
     bordercolor="#666666"
     borderopacity="1.0"
     inkscape:pageopacity="0.0"
     inkscape:pageshadow="2"
     inkscape:zoom="0.7"
     inkscape:cx="36.166029"
     inkscape:cy="286.72791"
     inkscape:document-units="px"
     inkscape:current-layer="layer1"
     showgrid="false"
     fit-margin-top="0"
     fit-margin-left="0"
     fit-margin-right="0"
     fit-margin-bottom="0"
     inkscape:window-width="1400"
     inkscape:window-height="1001"
     inkscape:window-x="0"
     inkscape:window-y="25"
     inkscape:window-maximized="1" />
  <metadata
     id="metadata7">
    <rdf:RDF>
      <cc:Work
         rdf:about="">
        <dc:format>image/svg+xml</dc:format>
        <dc:type
           rdf:resource="http://purl.org/dc/dcmitype/StillImage" />
        <dc:title></dc:title>
      </cc:Work>
    </rdf:RDF>
  </metadata>
  <g
     inkscape:label="Layer 1"
     inkscape:groupmode="layer"
     id="layer1"
     transform="translate(13.877313,-815.84364)">
    <rect
       style="fill:#ffffff;fill-opacity:1;fill-rule:evenodd;stroke:none;stroke-width:1px;stroke-linecap:butt;stroke-linejoin:miter;stroke-opacity:1"
       id="rect3334"
       width="652.85718"
       height="244.28572"
       x="-13.877313"
       y="815.84363" />
    <path
       style="fill:#007fff;fill-opacity:1"
       d="m -1.3682596,1044.2104 c -0.3285,-0.8593 -0.45147,-37 -0.27327,-80.31244 l 0.32402,-78.75 9.375,-0.7895 c 5.1562496,-0.43423 12.8728796,-1.9811 17.1480696,-3.4375 4.27518,-1.4564 10.49081,-2.648 13.81249,-2.648 3.321687,0 6.573807,-0.51065 7.226927,-1.13477 0.65313,-0.62412 4,-1.4309 7.4375,-1.79284 10.003008,-1.05324 18.612828,-2.70352 20.630548,-3.95434 1.0282,-0.6374 6.6507,-1.57132 12.49445,-2.07539 5.84375,-0.50407 13.718745,-1.46644 17.499995,-2.1386 7.30514,-1.29857 16.48197,-2.82342 30.45668,-5.06079 4.71992,-0.75567 9.02661,-1.64892 9.57042,-1.98502 0.54382,-0.33609 4.55707,-1.19956 8.91833,-1.91883 4.36126,-0.71926 10.74207,-1.80268 14.17957,-2.40761 3.4375,-0.60492 9.625,-1.63938 13.75,-2.29879 12.97659,-2.07442 22.41045,-4.03781 25,-5.20305 2.64732,-1.19124 8.48935,-2.2309 18.75,-3.3368 3.4375,-0.3705 6.78438,-1.18428 7.4375,-1.8084 0.65313,-0.62412 3.57979,-1.13477 6.50369,-1.13477 2.9239,0 6.60828,-0.56807 8.1875,-1.26238 1.57923,-0.69432 7.09006,-1.80593 12.24631,-2.47026 5.15625,-0.66432 12.46875,-1.73893 16.25,-2.38802 3.78125,-0.64908 10.53125,-1.78206 15,-2.51772 4.46875,-0.73566 11.21875,-1.89446 15,-2.57511 4.63098,-0.83361 9.32303,-0.81222 14.375,0.0655 21.87324,3.80033 36.43808,5.98677 47.5,7.13058 4.8125,0.49761 9.59125,1.44241 10.61945,2.09955 1.0282,0.65713 4.68445,1.66439 8.125,2.23835 3.44055,0.57396 9.3493,1.55473 13.13055,2.17949 9.49275,1.56845 17.93582,3.28205 27.49996,5.58137 4.4688,1.07433 11.7813,2.53317 16.25,3.24187 4.4688,0.7087 11.2188,1.77825 15,2.37677 3.7813,0.59852 11.375,1.99989 16.875,3.11416 9.5647,1.93776 16.7711,3.25898 31.875,5.84403 15.1661,2.59567 22.3221,3.62954 31.9475,4.61565 5.5399,0.56755 10.8811,1.53168 11.8695,2.14251 0.9883,0.61083 4.6119,1.5802 8.0525,2.15415 3.4405,0.57396 9.6305,1.61169 13.7555,2.30606 4.125,0.69438 10.875,1.56608 15,1.93712 4.125,0.37103 8.0855,1.15475 8.8012,1.74159 1.9125,1.56836 12.5311,3.8992 21.8238,4.79046 l 8.125,0.77926 0.3217,80.3125 0.3217,80.31246 -313.79841,0 c -249.886835,0 -313.92003961,-0.3182 -314.3956796,-1.5625 z M 283.35204,1030.8239 c 2.93173,-0.6595 8.42418,-1.7508 12.20543,-2.425 20.25995,-3.6129 39.4033,-7.4914 45.28934,-9.1759 4.95556,-1.4183 6.67863,-4.2188 5.28918,-8.5965 -0.74597,-2.3504 -1.48975,-2.5629 -6.64674,-1.8992 -10.90496,1.4033 -19.55294,3.0342 -30.041,5.6654 -5.76633,1.4466 -11.98195,2.6302 -13.8125,2.6302 -1.83055,0 -3.86265,0.5014 -4.51578,1.1141 -0.65312,0.6127 -4.5625,1.3492 -8.6875,1.6365 -11.78196,0.8206 -19.41393,5.809 -15.71196,10.2697 1.88016,2.2654 8.62381,2.582 16.63153,0.7807 z m 304.11809,-15.6322 c 3.1872,-1.6946 7.6722,-5.1306 9.9666,-7.6356 7.6892,-8.39459 8.1207,-11.60719 8.1207,-60.45551 l 0,-43.82763 -11.875,0 -11.875,0 0,42.30825 0,42.30825 -4.4351,4.56675 -4.4352,4.5667 -20.28,0 -20.28,0 -4.6599,-3.841 -4.6598,-3.841 0,-42.90022 c 0,-37.96631 -0.2274,-42.98752 -1.9772,-43.65899 -3.137,-1.2038 -16.2882,-0.88108 -19.8894,0.48807 l -3.2793,1.24681 0.462,44.06569 c 0.3544,33.79748 0.8734,45.23074 2.2273,49.06564 2.0954,5.93559 13.7309,18.12499 17.3014,18.12499 1.3792,0 2.8553,0.5625 3.2802,1.25 0.4802,0.7769 12.0743,1.25 30.6327,1.25 29.3369,0 29.9616,-0.054 35.655,-3.0812 z m -479.93571,-2.9862 c 10.97134,-5.7249 15.56587,-11.7024 17.43493,-22.68249 1.65009,-9.69377 0.92556,-16.91892 -2.33994,-23.33465 -3.76277,-7.3927 -7.0387,-10.52344 -15.37847,-14.69689 -6.19774,-3.10151 -7.251518,-3.21851 -28.988725,-3.21851 -13.68977,0 -22.860888,-0.49139 -23.329738,-1.25 -0.42489,-0.6875 -1.62327,-1.25 -2.66305,-1.25 -4.60235,0 -8.16471,-7.6904 -6.21372,-13.41413 2.59421,-7.61079 3.33803,-7.76078 40.308578,-8.12771 l 33.568185,-0.33316 0,-10.625 0,-10.625 -26.874995,-0.38927 c -14.78125,-0.2141 -32.569978,-0.0242 -39.530528,0.42209 -12.446757,0.79797 -12.755447,0.89393 -18.712877,5.81686 -9.50208,7.85207 -11.71396,11.95783 -12.59467,23.37868 -1.2032,15.60268 3.30126,25.6324 14.58809,32.48218 2.40624,1.46031 5.607417,2.65722 7.113717,2.65978 1.5063,0.003 3.08638,0.56718 3.51127,1.25468 0.47092,0.76195 9.99178,1.25 24.385158,1.25 l 23.61262,0 3.18861,4.18049 c 3.824255,5.01387 4.050765,10.01514 0.702307,15.50701 -1.362317,2.23435 -2.625837,4.18105 -2.807817,4.32605 -0.18198,0.1449 -16.36213,0.5668 -35.955878,0.9375 l -35.624987,0.6739 -0.38265,7.44799 c -0.60225,11.722 0.025,12.9482 6.95184,13.5908 3.26194,0.3026 19.993297,0.4231 37.180795,0.2679 l 31.249997,-0.2823 7.601948,-3.9668 z m 124.68484,2.6299 c 0.30764,-0.5156 0.76271,-5.1562 1.01128,-10.3125 l 0.45193,-9.37499 -31.88016,-0.3329 c -30.9758,-0.3236 -31.98067,-0.4132 -35.42335,-3.1582 -3.27805,-2.61387 -3.53834,-3.45754 -3.47834,-11.2745 0.0356,-4.64708 0.44988,-9.0722 0.92047,-9.83364 0.61326,-0.99227 9.98616,-1.13191 33.09047,-0.49298 22.72333,0.62838 32.9963,0.48391 34.81539,-0.48963 2.24766,-1.20291 2.58052,-2.56491 2.58052,-10.55903 0,-7.00717 -0.48833,-9.58372 -2.06468,-10.89352 -1.60842,-1.33644 -9.48098,-1.80465 -35.625,-2.11876 l -33.56032,-0.40321 0,-8.24836 c 0,-13.36258 -1.53527,-12.82022 36.29068,-12.82022 26.14342,0 32.42661,-0.32943 33.61595,-1.76248 0.89429,-1.07756 1.3181,-5.08516 1.09055,-10.3125 l -0.37218,-8.55002 -37.5,-0.33302 c -39.46687,-0.35049 -41.24376,-0.15167 -48.89851,5.47134 -7.09915,5.21486 -7.97649,10.74262 -7.97649,50.25639 0,38.46394 0.23344,39.91174 7.72264,47.89753 7.52509,8.0241 9.97274,8.4463 49.39109,8.5183 19.3813,0.035 35.49044,-0.3574 35.79806,-0.8731 z m 166.36098,0.1788 c 1.70381,-0.6538 1.97723,-3.9381 1.97723,-23.74999 l 0,-22.99125 27.18746,0.0191 c 14.9532,0.01 27.8772,0.45728 28.7202,0.9928 1.0951,0.69577 1.6303,7.37956 1.875,23.41835 l 0.3423,22.44469 9.8815,0.3686 c 5.4348,0.2027 10.3932,-0.1432 11.0187,-0.7688 0.6255,-0.6255 1.4618,-25.49053 1.8584,-55.25565 0.8298,-62.27889 1.8044,-57.46912 -11.6452,-57.46912 -12.5008,0 -11.7384,-1.47005 -11.7384,22.63374 l 0,21.11626 -28.75,0 -28.74996,0 0,-21.11626 c 0,-18.10216 -0.28222,-21.22457 -1.97723,-21.875 -3.60352,-1.3828 -19.9621,-0.8194 -21.52277,0.74126 -1.12082,1.12083 -1.5,15.28704 -1.5,56.04166 0,29.99792 0.375,54.91671 0.83334,55.37501 1.04181,1.0418 19.50711,1.1039 22.18943,0.075 z m -108.02277,-5.3866 c 3.78125,-0.6646 9.6875,-1.7815 13.125,-2.4821 3.4375,-0.7005 9.0625,-1.7796 12.5,-2.3978 29.24943,-5.26049 31.99063,-6.45289 29.90954,-13.00979 -0.69385,-2.1861 -1.55251,-2.3509 -8.46585,-1.6248 -4.23152,0.4444 -10.50619,1.5934 -13.94369,2.5534 -3.4375,0.96 -9.625,2.0351 -13.75,2.3891 -4.125,0.354 -10.59375,1.2413 -14.375,1.9719 -3.78125,0.7305 -10.02463,1.8008 -13.87418,2.3784 -12.07432,1.81159 -18.45167,6.43339 -14.85567,10.76629 1.8688,2.2518 8.71153,2.0947 23.72985,-0.5446 z m 29.10533,-24.57172 c 14.6162,-3.78743 28.05662,-13.07228 33.19592,-22.93224 1.40967,-2.70451 3.09044,-5.94292 3.73505,-7.19648 4.87424,-9.4788 6.52447,-21.63482 4.55173,-33.5292 -2.26125,-13.6339 -14.8049,-31.08196 -27.46303,-38.20072 -13.45231,-7.5654 -37.6307,-8.0204 -52.76243,-0.99289 -3.04577,1.41452 -9.10089,6.58184 -14.375,12.26734 -10.02369,10.80554 -12.32033,15.6862 -14.72909,31.30127 -1.58536,10.27726 -0.14749,18.75921 4.97332,29.3374 1.38502,2.86105 2.5182,5.60181 2.5182,6.09056 0,0.96447 6.23613,8.13524 11.25,12.93613 6.25372,5.98806 24.52713,12.71534 34.81958,12.81869 3.68201,0.037 10.1106,-0.81797 14.28575,-1.89986 z M 274.00366,958.1777 c -1.92221,-1.11976 -1.97261,-1.59372 -0.42802,-4.02449 0.96292,-1.51539 3.00157,-6.69275 4.53031,-11.50525 1.52875,-4.8125 3.22314,-9.875 3.76531,-11.25 4.61604,-11.70677 7.43621,-20.60547 7.43621,-23.46402 0,-1.87604 0.5625,-3.41098 1.25,-3.41098 0.6875,0 1.26789,-0.98437 1.28975,-2.1875 0.0547,-3.00997 2.27317,-5.66261 7.96759,-9.52695 5.78011,-3.92249 8.05114,-4.06302 14.01391,-0.86716 5.55012,2.97468 9.43798,8.56282 12.23215,17.58161 1.17149,3.78125 2.66248,7.85174 3.31329,9.04554 0.65083,1.19379 1.18331,3.02955 1.18331,4.07946 0,1.04991 0.54478,2.88567 1.21062,4.07946 0.66582,1.1938 2.04321,4.70179 3.06083,7.79554 1.01764,3.09375 3.00412,8.71081 4.4144,12.48235 1.41028,3.77155 2.56415,8.13093 2.56415,9.6875 0,2.62134 -0.54572,2.83015 -7.39661,2.83015 l -7.39661,0 -2.1136,-5.9375 c -2.40523,-6.75675 -3.3902,-9.85924 -5.65511,-17.8125 -0.88103,-3.09375 -3.14629,-10.40625 -5.0339,-16.25 -2.95905,-9.1607 -3.81895,-10.625 -6.23944,-10.625 -2.21898,0 -3.19639,1.17897 -4.6634,5.625 -1.0208,3.09375 -2.27819,6.75 -2.79419,8.125 -0.516,1.375 -2.46851,7.5625 -4.33892,13.75 -1.8704,6.1875 -3.89968,12.54209 -4.50948,14.12131 -0.6098,1.57923 -1.10874,3.90968 -1.10874,5.17877 0,1.26909 -0.88975,2.64888 -1.97723,3.06618 -3.08668,1.18448 -12.16339,0.81925 -14.57658,-0.58652 z m -17.35832,-62.10178 c 1.71256,-3.19996 -1.42118,-6.46139 -14.01429,-14.58531 -10.82659,-6.98433 -16.52395,-8.60443 -17.87525,-5.083 -0.80735,2.10392 2.63994,8.11535 4.65379,8.11535 0.71196,0 3.37087,1.62644 5.90868,3.6143 6.11502,4.7899 15.33722,9.93483 18.00773,10.04626 1.17894,0.0492 2.67264,-0.89923 3.31934,-2.1076 z m 105.78713,0.94704 c 0.4249,-0.6875 1.62238,-1.25 2.66105,-1.25 1.84774,0 11.14893,-5.88256 14.43274,-9.12802 0.91093,-0.90028 2.60781,-1.99703 3.77088,-2.43724 2.78157,-1.0528 6.44585,-6.71879 5.41931,-8.37977 -0.97801,-1.58246 -9.40898,-1.75934 -9.40898,-0.1974 0,0.60917 -1.82812,2.03097 -4.0625,3.15956 -5.384,2.71948 -8.4025,4.6482 -11.41747,7.29537 -1.37029,1.20313 -2.9349,2.1875 -3.47691,2.1875 -1.84327,0 -4.85318,5.88901 -4.06274,7.94887 0.86482,2.25367 4.92014,2.7824 6.14462,0.80113 z m -28.125,-25.92568 c 0,-0.86588 0.4571,-1.57432 1.01577,-1.57432 1.13596,0 6.17937,-10.90971 7.9654,-17.23043 1.23423,-4.36797 0.39997,-9.01957 -1.61767,-9.01957 -2.3067,0 -5.852,4.38941 -8.58173,10.625 -1.50483,3.4375 -3.25259,7.22674 -3.8839,8.42054 -1.2856,2.43098 -1.56219,11.37347 -0.3881,12.54756 1.10107,1.10107 5.49023,-1.91187 5.49023,-3.76878 z m -48.12117,-0.34172 c 0.60561,-2.75733 -0.038,-5.5042 -2.40069,-10.24543 -1.77547,-3.56292 -3.22814,-7.09196 -3.22814,-7.84232 0,-0.75036 -1.64443,-3.31179 -3.65431,-5.69207 -3.06195,-3.62625 -4.02442,-4.10344 -5.9375,-2.9438 -2.817,1.70756 -3.55311,4.97289 -1.90894,8.46782 0.68523,1.45651 2.20739,4.8982 3.38262,7.6482 5.63281,13.18074 12.08781,18.16163 13.74696,10.6076 z"
       id="path3401"
       inkscape:connector-curvature="0" />
  </g>
</svg>
