<?xml version="1.0" encoding="UTF-8" standalone="no"?>
<!-- Created with Inkscape (http://www.inkscape.org/) -->

<svg
   xmlns:dc="http://purl.org/dc/elements/1.1/"
   xmlns:cc="http://creativecommons.org/ns#"
   xmlns:rdf="http://www.w3.org/1999/02/22-rdf-syntax-ns#"
   xmlns:svg="http://www.w3.org/2000/svg"
   xmlns="http://www.w3.org/2000/svg"
   xmlns:sodipodi="http://sodipodi.sourceforge.net/DTD/sodipodi-0.dtd"
   xmlns:inkscape="http://www.inkscape.org/namespaces/inkscape"
   width="125.94462"
   height="63.513397"
   id="svg3180"
   version="1.1"
   inkscape:version="0.48.4 r9939"
   sodipodi:docname="New document 2">
  <defs
     id="defs3182">
    <filter
       color-interpolation-filters="sRGB"
       inkscape:collect="always"
       id="filter4643">
      <feGaussianBlur
         inkscape:collect="always"
         stdDeviation="1.6030452"
         id="feGaussianBlur4645" />
    </filter>
  </defs>
  <sodipodi:namedview
     id="base"
     pagecolor="#ffffff"
     bordercolor="#666666"
     borderopacity="1.0"
     inkscape:pageopacity="0.0"
     inkscape:pageshadow="2"
     inkscape:zoom="1.4"
     inkscape:cx="-10.540601"
     inkscape:cy="-8.7864364"
     inkscape:document-units="px"
     inkscape:current-layer="layer1"
     showgrid="false"
     fit-margin-top="0"
     fit-margin-left="0"
     fit-margin-right="0"
     fit-margin-bottom="0"
     inkscape:window-width="1280"
     inkscape:window-height="975"
     inkscape:window-x="0"
     inkscape:window-y="25"
     inkscape:window-maximized="1" />
  <metadata
     id="metadata3185">
    <rdf:RDF>
      <cc:Work
         rdf:about="">
        <dc:format>image/svg+xml</dc:format>
        <dc:type
           rdf:resource="http://purl.org/dc/dcmitype/StillImage" />
        <dc:title></dc:title>
      </cc:Work>
    </rdf:RDF>
  </metadata>
  <g
     inkscape:label="Layer 1"
     inkscape:groupmode="layer"
     id="layer1"
     transform="translate(-282.42504,-414.84466)">
    <g
       style="display:inline"
       id="g4749"
       transform="translate(-1135.1693,-751.17625)">
      <path
         style="fill:none;stroke:#161192;stroke-width:1.60000002;stroke-linecap:butt;stroke-linejoin:miter;stroke-miterlimit:4;stroke-opacity:1;stroke-dasharray:none"
         d="m 1422.089,1207.467 17.6785,-15.9821 0,-6.5179 m -4.6875,0.3572 12.7902,-1.0938 12.8795,-13.0134 10.0893,10.2679 68.8392,0"
         id="path4564"
         inkscape:connector-curvature="0"
         sodipodi:nodetypes="cccccccc" />
      <path
         style="fill:none;stroke:#161192;stroke-width:1.60000002;stroke-linecap:butt;stroke-linejoin:miter;stroke-miterlimit:4;stroke-opacity:1;stroke-dasharray:none"
         d="m 1525.839,1170.8599 0,23.3036"
         id="path4566"
         inkscape:connector-curvature="0" />
      <path
         sodipodi:type="arc"
         style="color:#000000;fill:none;stroke:#161192;stroke-width:1.60000002;stroke-linecap:butt;stroke-linejoin:miter;stroke-miterlimit:4;stroke-opacity:1;stroke-dasharray:none;stroke-dashoffset:0;marker:none;visibility:visible;display:inline;overflow:visible;enable-background:accumulate"
         id="path4568"
         sodipodi:cx="387.09821"
         sodipodi:cy="398.38898"
         sodipodi:rx="5.3125"
         sodipodi:ry="5.3125"
         d="m 392.41071,398.38898 c 0,2.93401 -2.37849,5.3125 -5.3125,5.3125 -2.93402,0 -5.3125,-2.37849 -5.3125,-5.3125 0,-2.93402 2.37848,-5.3125 5.3125,-5.3125 2.93401,0 5.3125,2.37848 5.3125,5.3125 z"
         transform="translate(1138.7765,783.05126)" />
      <path
         style="fill:none;stroke:#000000;stroke-width:1.5;stroke-linecap:butt;stroke-linejoin:miter;stroke-miterlimit:4;stroke-opacity:1;stroke-dasharray:none"
         d="m 1438.7854,1214.7885 23.5714,0.1785 c 0,0 2.1548,-1.0464 2.8572,-1.9643 0.7093,-0.9269 0.5871,-2.054 0.7142,-3.2142 0.1944,-1.7733 0.3394,-3.3873 -0.5357,-4.375 -1.634,-1.8443 -2.3214,-1.6965 -2.3214,-1.6965 l -15.1786,0.1786 c 0,0 -2.2291,-0.019 -3.0357,-1.6071 -0.5886,-1.1592 -1.2047,-2.9926 -1.0714,-4.2858 0.2166,-2.1017 0.8047,-3.2443 1.6964,-4.1964 0.9855,-1.0523 3.125,-1.3393 3.125,-1.3393 l 17.6786,0"
         id="path4570"
         inkscape:connector-curvature="0"
         sodipodi:nodetypes="ccsssccssscc" />
      <path
         style="fill:none;stroke:#000000;stroke-width:1.5;stroke-linecap:butt;stroke-linejoin:miter;stroke-miterlimit:4;stroke-opacity:1;stroke-dasharray:none"
         d="m 1471.1068,1215.1456 0,-11.6071 13.5714,0 3.9286,-0.3572 c 0,0 2.2822,-1.2373 2.8572,-2.3214 0.6438,-1.2141 0.7397,-2.7873 0.3571,-4.1072 -0.4376,-1.5093 -1.4881,-2.9784 -2.8571,-3.75 -1.4603,-0.823 -5,-0.5357 -5,-0.5357 l -14.2858,0"
         id="path4572"
         inkscape:connector-curvature="0"
         sodipodi:nodetypes="ccccasscc" />
      <path
         style="fill:none;stroke:#000000;stroke-width:1.5;stroke-linecap:butt;stroke-linejoin:miter;stroke-miterlimit:4;stroke-opacity:1;stroke-dasharray:none"
         d="m 1489.8568,1214.7885 23.3929,0 c 0,0 2.9542,-0.5812 3.9285,-1.6072 0.8686,-0.9146 1.1623,-2.3132 1.25,-3.5714 0.084,-1.2111 -0.1217,-2.5118 -0.7142,-3.5714 -0.5551,-0.9926 -3.2143,-2.3215 -3.2143,-2.3215 l -15,0 c 0,0 -2.548,-1.7212 -3.2143,-3.0357 -0.6509,-1.2841 -0.9835,-2.9174 -0.5357,-4.2857 0.4583,-1.4007 1.757,-2.4815 3.0357,-3.2143 0.689,-0.3948 2.3214,-0.5357 2.3214,-0.5357 l 17.3214,0 0,0.5357"
         id="path4574"
         inkscape:connector-curvature="0"
         sodipodi:nodetypes="ccsssccsssccc" />
      <path
         sodipodi:nodetypes="ccaaac"
         style="fill:none;stroke:#161192;stroke-width:1.5;stroke-linecap:butt;stroke-linejoin:miter;stroke-miterlimit:4;stroke-opacity:1;stroke-dasharray:none"
         d="m 1470.1247,1192.1099 0,-4.6429 c 0,0 4.6516,-2.3849 7.1428,-3.125 1.909,-0.5671 3.9042,-0.8791 5.8929,-0.9821 2.4121,-0.125 4.8665,-0.041 7.2321,0.4464 3.2962,0.6791 9.5024,3.4119 9.5024,3.4119"
         id="path4576"
         inkscape:connector-curvature="0" />
      <path
         sodipodi:nodetypes="ccc"
         style="fill:none;stroke:#000000;stroke-width:1.5;stroke-linecap:butt;stroke-linejoin:miter;stroke-miterlimit:4;stroke-opacity:1;stroke-dasharray:none"
         d="m 1499.8949,1187.1921 6.6583,4.2928 5.1786,-4.5536"
         id="path4578"
         inkscape:connector-curvature="0" />
      <flowRoot
         xml:space="preserve"
         id="flowRoot4580"
         style="font-size:6px;font-style:normal;font-weight:normal;line-height:125%;letter-spacing:0px;word-spacing:0px;fill:#000000;fill-opacity:1;stroke:none;font-family:Sans"
         transform="matrix(1.5878197,0,0,1.5878197,904.12313,981.2496)"><flowRegion
           id="flowRegion4582"><rect
             id="rect4584"
             width="57.57869"
             height="10.606586"
             x="333.35034"
             y="149.28581" /></flowRegion><flowPara
           id="flowPara4586"
           style="font-style:italic;font-variant:normal;font-weight:bold;font-stretch:normal;font-family:Tibetan Machine Uni;-inkscape-font-specification:Tibetan Machine Uni Bold Italic">STAVEBNÍ BRNO</flowPara></flowRoot>      <path
         style="fill:none;stroke:#161192;stroke-width:1.60000002;stroke-linecap:butt;stroke-linejoin:miter;stroke-miterlimit:4;stroke-opacity:1;stroke-dasharray:none"
         d="m 1426.9997,1224.7885 0,-21.515"
         id="path4588"
         inkscape:connector-curvature="0" />
      <g
         style="stroke-width:1.89999998;stroke-miterlimit:4;stroke-dasharray:none;filter:url(#filter4643)"
         id="g4616"
         transform="translate(1128.7854,681.71197)">
        <path
           style="fill:none;stroke:#161192;stroke-width:1.89999998;stroke-linecap:butt;stroke-linejoin:miter;stroke-miterlimit:4;stroke-opacity:1;stroke-dasharray:none"
           d="m 293.30357,525.75504 17.67857,-15.98215 0,-6.51785 m -4.6875,0.35714 12.79018,-1.09375 12.87946,-13.01339 10.08929,10.26785 68.83928,0"
           id="path4590"
           inkscape:connector-curvature="0"
           sodipodi:nodetypes="cccccccc" />
        <path
           style="fill:none;stroke:#161192;stroke-width:1.89999998;stroke-linecap:butt;stroke-linejoin:miter;stroke-miterlimit:4;stroke-opacity:1;stroke-dasharray:none"
           d="m 397.05357,489.14789 0,23.30358"
           id="path4592"
           inkscape:connector-curvature="0" />
        <path
           sodipodi:type="arc"
           style="color:#000000;fill:none;stroke:#161192;stroke-width:1.89999998;stroke-linecap:butt;stroke-linejoin:miter;stroke-miterlimit:4;stroke-opacity:1;stroke-dasharray:none;stroke-dashoffset:0;marker:none;visibility:visible;display:inline;overflow:visible;enable-background:accumulate"
           id="path4594"
           sodipodi:cx="387.09821"
           sodipodi:cy="398.38898"
           sodipodi:rx="5.3125"
           sodipodi:ry="5.3125"
           d="m 392.41071,398.38898 c 0,2.93401 -2.37849,5.3125 -5.3125,5.3125 -2.93402,0 -5.3125,-2.37849 -5.3125,-5.3125 0,-2.93402 2.37848,-5.3125 5.3125,-5.3125 2.93401,0 5.3125,2.37848 5.3125,5.3125 z"
           transform="translate(9.991083,101.33929)" />
        <path
           style="fill:none;stroke:#000000;stroke-width:1.89999998;stroke-linecap:butt;stroke-linejoin:miter;stroke-miterlimit:4;stroke-opacity:1;stroke-dasharray:none"
           d="m 310,533.07647 23.57142,0.17857 c 0,0 2.15477,-1.04646 2.85715,-1.96429 0.70933,-0.92691 0.58712,-2.05405 0.71428,-3.21428 0.19435,-1.77327 0.3394,-3.38731 -0.53571,-4.37501 -1.63403,-1.84424 -2.32143,-1.69642 -2.32143,-1.69642 l -15.17857,0.17857 c 0,0 -2.22912,-0.0187 -3.03572,-1.60714 -0.5886,-1.15914 -1.2047,-2.99255 -1.07142,-4.28572 0.21663,-2.10178 0.80475,-3.24432 1.69642,-4.19642 0.98551,-1.05231 3.125,-1.33929 3.125,-1.33929 l 17.67858,0"
           id="path4596"
           inkscape:connector-curvature="0"
           sodipodi:nodetypes="ccsssccssscc" />
        <path
           style="fill:none;stroke:#000000;stroke-width:1.89999998;stroke-linecap:butt;stroke-linejoin:miter;stroke-miterlimit:4;stroke-opacity:1;stroke-dasharray:none"
           d="m 342.32142,533.43361 0,-11.60714 13.57143,0 3.92858,-0.35715 c 0,0 2.28222,-1.23733 2.85714,-2.32143 0.64384,-1.21406 0.73978,-2.78727 0.35714,-4.10714 -0.43756,-1.50933 -1.48813,-2.97842 -2.85714,-3.75 -1.46025,-0.823 -5,-0.53571 -5,-0.53571 l -14.28572,0"
           id="path4598"
           inkscape:connector-curvature="0"
           sodipodi:nodetypes="ccccasscc" />
        <path
           style="fill:none;stroke:#000000;stroke-width:1.89999998;stroke-linecap:butt;stroke-linejoin:miter;stroke-miterlimit:4;stroke-opacity:1;stroke-dasharray:none"
           d="m 361.07143,533.07647 23.39285,0 c 0,0 2.95427,-0.58119 3.92857,-1.60715 0.86854,-0.9146 1.16223,-2.3132 1.25,-3.57143 0.0845,-1.21111 -0.12171,-2.51181 -0.71428,-3.57142 -0.55506,-0.99254 -3.21429,-2.32143 -3.21429,-2.32143 l -15,0 c 0,0 -2.54795,-1.72122 -3.21428,-3.03572 -0.65093,-1.28413 -0.98345,-2.91741 -0.53572,-4.28571 0.45833,-1.40066 1.75706,-2.48153 3.03572,-3.21429 0.68903,-0.39486 2.32143,-0.53571 2.32143,-0.53571 l 17.32142,0 0,0.53571"
           id="path4600"
           inkscape:connector-curvature="0"
           sodipodi:nodetypes="ccsssccsssccc" />
        <path
           sodipodi:nodetypes="ccaaac"
           style="fill:none;stroke:#161192;stroke-width:1.89999998;stroke-linecap:butt;stroke-linejoin:miter;stroke-miterlimit:4;stroke-opacity:1;stroke-dasharray:none"
           d="m 341.33928,510.39789 0,-4.64285 c 0,0 4.65163,-2.38489 7.14286,-3.125 1.90892,-0.56711 3.90414,-0.87914 5.89286,-0.98215 2.41207,-0.12494 4.86652,-0.041 7.23214,0.44643 3.29621,0.67911 9.50236,3.4119 9.50236,3.4119"
           id="path4602"
           inkscape:connector-curvature="0" />
        <path
           sodipodi:nodetypes="ccc"
           style="fill:none;stroke:#000000;stroke-width:1.89999998;stroke-linecap:butt;stroke-linejoin:miter;stroke-miterlimit:4;stroke-opacity:1;stroke-dasharray:none"
           d="m 371.1095,505.48006 6.65835,4.29283 5.17858,-4.55357"
           id="path4604"
           inkscape:connector-curvature="0" />
        <flowRoot
           xml:space="preserve"
           id="flowRoot4606"
           style="font-size:6px;font-style:normal;font-weight:normal;line-height:125%;letter-spacing:0px;word-spacing:0px;fill:#000000;fill-opacity:1;stroke:none;font-family:Sans"
           transform="matrix(1.5878197,0,0,1.5878197,-224.6623,299.53763)"><flowRegion
             id="flowRegion4608"><rect
               id="rect4610"
               width="57.57869"
               height="10.606586"
               x="333.35034"
               y="149.28581" /></flowRegion><flowPara
             id="flowPara4612"
             style="font-style:italic;font-variant:normal;font-weight:bold;font-stretch:normal;font-family:Tibetan Machine Uni;-inkscape-font-specification:Tibetan Machine Uni Bold Italic">STAVEBNÍ BRNO</flowPara></flowRoot>        <path
           style="fill:none;stroke:#161192;stroke-width:1.89999998;stroke-linecap:butt;stroke-linejoin:miter;stroke-miterlimit:4;stroke-opacity:1;stroke-dasharray:none"
           d="m 298.21428,543.07647 0,-21.51494"
           id="path4614"
           inkscape:connector-curvature="0" />
      </g>
    </g>
  </g>
</svg>
